<svg width="132" height="103" viewBox="0 0 132 103" fill="none" xmlns="http://www.w3.org/2000/svg">
<rect x="1.5" y="1.5" width="128.984" height="81.2105" rx="18.5" fill="white" stroke="url(#paint0_linear_58_3395)" stroke-width="3"/>
<path d="M48.5685 39.1926C48.5685 39.1926 60.1069 34.1318 58.6899 28.4638C57.2729 22.7958 41.4834 27.924 40.6737 28.4638C40.6737 28.4638 22.86 34.5367 26.0988 43.8484C29.3377 53.1602 50.3903 46.48 58.6899 41.8241C66.9895 37.1683 73.4673 28.6663 69.8235 22.7958C66.1797 16.9253 49.7831 16.7964 40.6737 19.5569C31.5643 22.3174 24.6819 26.0347 20.0259 30.2857C15.37 34.5367 11.9288 43.0387 13.9531 48.9092C15.9774 54.7796 26.0989 59.8404 40.6737 58.6258C55.2486 57.4112 78.3255 48.9092 78.3255 48.9092M79.1352 48.9093C79.1352 48.9093 102.819 40.6097 111.726 29.0712M81.5644 43.0387H92.0907L88.6494 51.5407M87.4348 37.1683L99.783 38.5853L96.3417 49.1116M97.5563 32.31L106.666 33.727L103.224 44.0509M112.685 28.8761C113.075 30.7566 106.614 40.5931 103.022 44.0826C99.43 47.5721 94.9346 51.118 90.0668 51.6032C85.199 52.0884 78.0219 48.9987 78.0219 48.9987C78.0219 48.9987 79.7955 43.9899 83.4609 40.2237C87.1262 36.4575 91.2544 34.2951 96.416 32.7032C101.578 31.1112 112.296 26.9956 112.685 28.8761Z" stroke="url(#paint1_linear_58_3395)" stroke-width="3"/>
<circle cx="106.463" cy="54.3748" r="1.417" fill="#12544A"/>
<circle cx="106.463" cy="54.3748" r="1.417" fill="#12544A"/>
<circle cx="111.727" cy="42.6339" r="1.417" fill="#12544A"/>
<circle cx="111.727" cy="42.6339" r="1.417" fill="#12544A"/>
<circle cx="80.1475" cy="36.561" r="1.417" fill="#12544A"/>
<circle cx="80.1475" cy="36.561" r="1.417" fill="#12544A"/>
<circle cx="99.1758" cy="25.225" r="1.417" fill="#12544A"/>
<circle cx="99.1758" cy="25.225" r="1.417" fill="#12544A"/>
<circle cx="117.395" cy="29.2736" r="1.417" fill="#12544A"/>
<circle cx="117.395" cy="29.2736" r="1.417" fill="#12544A"/>
<rect x="21.0527" y="71.2551" width="90.2834" height="23.8866" fill="white"/>
<path d="M24.1146 89V75.04H33.3146V77.38H26.7546V80.76H32.5546V83.1H26.7546V86.66H33.3146V89H24.1146ZM40.4467 89.24C39.2467 89.24 38.2267 89.0267 37.3867 88.6C36.5601 88.1733 35.8467 87.6133 35.2467 86.92L37.0267 85.2C37.5067 85.76 38.0401 86.1867 38.6267 86.48C39.2267 86.7733 39.8867 86.92 40.6067 86.92C41.4201 86.92 42.0334 86.7467 42.4467 86.4C42.8601 86.04 43.0667 85.56 43.0667 84.96C43.0667 84.4933 42.9334 84.1133 42.6667 83.82C42.4001 83.5267 41.9001 83.3133 41.1667 83.18L39.8467 82.98C37.0601 82.54 35.6667 81.1867 35.6667 78.92C35.6667 78.2933 35.7801 77.7267 36.0067 77.22C36.2467 76.7133 36.5867 76.28 37.0267 75.92C37.4667 75.56 37.9934 75.2867 38.6067 75.1C39.2334 74.9 39.9401 74.8 40.7267 74.8C41.7801 74.8 42.7001 74.9733 43.4867 75.32C44.2734 75.6667 44.9467 76.18 45.5067 76.86L43.7067 78.56C43.3601 78.1333 42.9401 77.7867 42.4467 77.52C41.9534 77.2533 41.3334 77.12 40.5867 77.12C39.8267 77.12 39.2534 77.2667 38.8667 77.56C38.4934 77.84 38.3067 78.24 38.3067 78.76C38.3067 79.2933 38.4601 79.6867 38.7667 79.94C39.0734 80.1933 39.5667 80.38 40.2467 80.5L41.5467 80.74C42.9601 80.9933 44.0001 81.4467 44.6667 82.1C45.3467 82.74 45.6867 83.64 45.6867 84.8C45.6867 85.4667 45.5667 86.0733 45.3267 86.62C45.1001 87.1533 44.7601 87.62 44.3067 88.02C43.8667 88.4067 43.3201 88.7067 42.6667 88.92C42.0267 89.1333 41.2867 89.24 40.4467 89.24ZM52.4194 89.24C51.2194 89.24 50.1994 89.0267 49.3594 88.6C48.5327 88.1733 47.8194 87.6133 47.2194 86.92L48.9994 85.2C49.4794 85.76 50.0127 86.1867 50.5994 86.48C51.1994 86.7733 51.8594 86.92 52.5794 86.92C53.3927 86.92 54.0061 86.7467 54.4194 86.4C54.8327 86.04 55.0394 85.56 55.0394 84.96C55.0394 84.4933 54.9061 84.1133 54.6394 83.82C54.3727 83.5267 53.8727 83.3133 53.1394 83.18L51.8194 82.98C49.0327 82.54 47.6394 81.1867 47.6394 78.92C47.6394 78.2933 47.7527 77.7267 47.9794 77.22C48.2194 76.7133 48.5594 76.28 48.9994 75.92C49.4394 75.56 49.9661 75.2867 50.5794 75.1C51.2061 74.9 51.9127 74.8 52.6994 74.8C53.7527 74.8 54.6727 74.9733 55.4594 75.32C56.2461 75.6667 56.9194 76.18 57.4794 76.86L55.6794 78.56C55.3327 78.1333 54.9127 77.7867 54.4194 77.52C53.9261 77.2533 53.3061 77.12 52.5594 77.12C51.7994 77.12 51.2261 77.2667 50.8394 77.56C50.4661 77.84 50.2794 78.24 50.2794 78.76C50.2794 79.2933 50.4327 79.6867 50.7394 79.94C51.0461 80.1933 51.5394 80.38 52.2194 80.5L53.5194 80.74C54.9327 80.9933 55.9727 81.4467 56.6394 82.1C57.3194 82.74 57.6594 83.64 57.6594 84.8C57.6594 85.4667 57.5394 86.0733 57.2994 86.62C57.0727 87.1533 56.7327 87.62 56.2794 88.02C55.8394 88.4067 55.2927 88.7067 54.6394 88.92C53.9994 89.1333 53.2594 89.24 52.4194 89.24ZM60.306 89V75.04H66.586C67.226 75.04 67.7993 75.1467 68.306 75.36C68.826 75.56 69.266 75.8533 69.626 76.24C69.986 76.6133 70.2593 77.0667 70.446 77.6C70.6326 78.1333 70.726 78.72 70.726 79.36C70.726 80.0133 70.6326 80.6067 70.446 81.14C70.2593 81.66 69.986 82.1133 69.626 82.5C69.266 82.8733 68.826 83.1667 68.306 83.38C67.7993 83.58 67.226 83.68 66.586 83.68H62.946V89H60.306ZM62.946 81.4H66.346C66.8526 81.4 67.2526 81.2667 67.546 81C67.8393 80.72 67.986 80.3267 67.986 79.82V78.9C67.986 78.3933 67.8393 78.0067 67.546 77.74C67.2526 77.4733 66.8526 77.34 66.346 77.34H62.946V81.4ZM73.1185 89V75.04H82.3185V77.38H75.7585V80.76H81.5585V83.1H75.7585V86.66H82.3185V89H73.1185ZM87.7507 89H85.1107V75.04H91.4107C92.0507 75.04 92.624 75.14 93.1307 75.34C93.6373 75.54 94.064 75.8333 94.4107 76.22C94.7707 76.5933 95.044 77.0467 95.2307 77.58C95.4307 78.1133 95.5307 78.7067 95.5307 79.36C95.5307 80.32 95.3107 81.1467 94.8707 81.84C94.444 82.5333 93.7973 83.0267 92.9307 83.32L95.7907 89H92.8507L90.2507 83.62H87.7507V89ZM91.1507 81.4C91.6573 81.4 92.0573 81.2667 92.3507 81C92.644 80.72 92.7907 80.3267 92.7907 79.82V78.9C92.7907 78.3933 92.644 78.0067 92.3507 77.74C92.0573 77.4733 91.6573 77.34 91.1507 77.34H87.7507V81.4H91.1507ZM107.032 89L105.912 85.44H100.952L99.8519 89H97.1719L101.852 75.04H105.132L109.772 89H107.032ZM103.472 77.44H103.372L101.592 83.18H105.272L103.472 77.44Z" fill="#AB5D00"/>
<defs>
<linearGradient id="paint0_linear_58_3395" x1="1.5454e-06" y1="74.2915" x2="131.984" y2="25.3037" gradientUnits="userSpaceOnUse">
<stop stop-color="#F9DFC8"/>
<stop offset="0.479167" stop-color="#CD832A" stop-opacity="0.51"/>
<stop offset="1" stop-color="#CD832A"/>
</linearGradient>
<linearGradient id="paint1_linear_58_3395" x1="2.02432" y1="69.4331" x2="117.814" y2="25.9109" gradientUnits="userSpaceOnUse">
<stop stop-color="#F9DFC8"/>
<stop offset="0.510417" stop-color="#CD832A" stop-opacity="0.51"/>
<stop offset="0.973958" stop-color="#CD832A"/>
</linearGradient>
</defs>
</svg>
