<svg width="152" height="81" viewBox="0 0 152 81" fill="none" xmlns="http://www.w3.org/2000/svg">
<rect x="1.5" y="1.5" width="148" height="63.3156" rx="18.5" fill="white" stroke="url(#paint0_linear_58_3629)" stroke-width="3"/>
<path d="M55.5612 27.3002C55.5612 27.3002 68.7621 22.9143 67.1409 18.002C65.5198 13.0898 47.4553 17.5342 46.529 18.002C46.529 18.002 26.1486 23.2652 29.8541 31.3353C33.5596 39.4055 57.6455 33.616 67.1409 29.5809C76.6363 25.5459 84.0475 18.1775 79.8787 13.0898C75.7099 8.002 56.9508 7.89027 46.529 10.2827C36.1071 12.6751 28.233 15.8968 22.9062 19.581C17.5795 23.2652 13.6425 30.6336 15.9584 35.7213C18.2744 40.809 29.8542 45.1949 46.529 44.1423C63.2038 43.0897 89.6056 35.7213 89.6056 35.7213M90.532 35.7214C90.532 35.7214 117.629 28.5284 127.819 18.5284M93.3111 30.6336H105.354L101.417 38.002M100.027 25.5459L114.155 26.7739L110.218 35.8967M111.607 21.3353L122.029 22.5634L118.092 31.5108M128.916 18.3593C129.362 19.9891 121.97 28.5141 117.86 31.5383C113.751 34.5625 108.608 37.6356 103.039 38.0561C97.4694 38.4766 89.2582 35.7989 89.2582 35.7989C89.2582 35.7989 91.2874 31.458 95.4809 28.1939C99.6743 24.9299 104.397 23.0558 110.303 21.6761C116.208 20.2965 128.471 16.7296 128.916 18.3593Z" stroke="url(#paint1_linear_58_3629)" stroke-width="3"/>
<ellipse cx="121.798" cy="40.4579" rx="1.62117" ry="1.22807" fill="#12544A"/>
<ellipse cx="121.798" cy="40.4579" rx="1.62117" ry="1.22807" fill="#12544A"/>
<ellipse cx="127.816" cy="30.2828" rx="1.62117" ry="1.22807" fill="#12544A"/>
<ellipse cx="127.816" cy="30.2828" rx="1.62117" ry="1.22807" fill="#12544A"/>
<ellipse cx="91.6837" cy="25.0197" rx="1.62117" ry="1.22807" fill="#12544A"/>
<ellipse cx="91.6837" cy="25.0197" rx="1.62117" ry="1.22807" fill="#12544A"/>
<ellipse cx="113.461" cy="15.195" rx="1.62117" ry="1.22807" fill="#12544A"/>
<ellipse cx="113.461" cy="15.195" rx="1.62117" ry="1.22807" fill="#12544A"/>
<ellipse cx="134.302" cy="18.7044" rx="1.62117" ry="1.22807" fill="#12544A"/>
<ellipse cx="134.302" cy="18.7044" rx="1.62117" ry="1.22807" fill="#12544A"/>
<rect x="19.5244" y="48.0709" width="112.752" height="27.7192" fill="white"/>
<path d="M23.0012 55.1508H25.4332V60.9268H25.5092C25.6865 60.3568 26.0222 59.9071 26.5162 59.5778C27.0102 59.2358 27.5865 59.0648 28.2452 59.0648C29.5119 59.0648 30.4745 59.5145 31.1332 60.4138C31.8045 61.3005 32.1402 62.5735 32.1402 64.2328C32.1402 65.9048 31.8045 67.1905 31.1332 68.0898C30.4745 68.9891 29.5119 69.4388 28.2452 69.4388C27.5865 69.4388 27.0102 69.2678 26.5162 68.9258C26.0349 68.5838 25.6992 68.1278 25.5092 67.5578H25.4332V69.2108H23.0012V55.1508ZM27.4662 67.4248C28.0995 67.4248 28.6125 67.2158 29.0052 66.7978C29.3979 66.3798 29.5942 65.8161 29.5942 65.1068V63.3968C29.5942 62.6875 29.3979 62.1238 29.0052 61.7058C28.6125 61.2751 28.0995 61.0598 27.4662 61.0598C26.8835 61.0598 26.3959 61.2055 26.0032 61.4968C25.6232 61.7881 25.4332 62.1745 25.4332 62.6558V65.8098C25.4332 66.3291 25.6232 66.7281 26.0032 67.0068C26.3959 67.2855 26.8835 67.4248 27.4662 67.4248ZM40.3068 59.2928H42.5868L38.5968 70.9778C38.4701 71.3325 38.3245 71.6365 38.1598 71.8898C38.0078 72.1558 37.8241 72.3711 37.6088 72.5358C37.3935 72.7005 37.1338 72.8208 36.8298 72.8968C36.5258 72.9728 36.1711 73.0108 35.7658 73.0108H34.3028V71.0728H36.0888L36.5448 69.6858L32.9918 59.2928H35.4048L37.1338 64.5368L37.7798 67.0448H37.8938L38.5778 64.5368L40.3068 59.2928ZM48.8329 69.2108V55.9488H57.5729V58.1718H51.3409V61.3828H56.8509V63.6058H51.3409V66.9878H57.5729V69.2108H48.8329ZM64.3485 69.4388C63.2085 69.4388 62.2395 69.2361 61.4415 68.8308C60.6561 68.4255 59.9785 67.8935 59.4085 67.2348L61.0995 65.6008C61.5555 66.1328 62.0621 66.5381 62.6195 66.8168C63.1895 67.0955 63.8165 67.2348 64.5005 67.2348C65.2731 67.2348 65.8558 67.0701 66.2485 66.7408C66.6411 66.3988 66.8375 65.9428 66.8375 65.3728C66.8375 64.9295 66.7108 64.5685 66.4575 64.2898C66.2041 64.0111 65.7291 63.8085 65.0325 63.6818L63.7785 63.4918C61.1311 63.0738 59.8075 61.7881 59.8075 59.6348C59.8075 59.0395 59.9151 58.5011 60.1305 58.0198C60.3585 57.5385 60.6815 57.1268 61.0995 56.7848C61.5175 56.4428 62.0178 56.1831 62.6005 56.0058C63.1958 55.8158 63.8671 55.7208 64.6145 55.7208C65.6151 55.7208 66.4891 55.8855 67.2365 56.2148C67.9838 56.5441 68.6235 57.0318 69.1555 57.6778L67.4455 59.2928C67.1161 58.8875 66.7171 58.5581 66.2485 58.3048C65.7798 58.0515 65.1908 57.9248 64.4815 57.9248C63.7595 57.9248 63.2148 58.0641 62.8475 58.3428C62.4928 58.6088 62.3155 58.9888 62.3155 59.4828C62.3155 59.9895 62.4611 60.3631 62.7525 60.6038C63.0438 60.8445 63.5125 61.0218 64.1585 61.1358L65.3935 61.3638C66.7361 61.6045 67.7241 62.0351 68.3575 62.6558C69.0035 63.2638 69.3265 64.1188 69.3265 65.2208C69.3265 65.8541 69.2125 66.4305 68.9845 66.9498C68.7691 67.4565 68.4461 67.8998 68.0155 68.2798C67.5975 68.6471 67.0781 68.9321 66.4575 69.1348C65.8495 69.3375 65.1465 69.4388 64.3485 69.4388ZM75.7225 69.4388C74.5825 69.4388 73.6135 69.2361 72.8155 68.8308C72.0302 68.4255 71.3525 67.8935 70.7825 67.2348L72.4735 65.6008C72.9295 66.1328 73.4362 66.5381 73.9935 66.8168C74.5635 67.0955 75.1905 67.2348 75.8745 67.2348C76.6472 67.2348 77.2298 67.0701 77.6225 66.7408C78.0152 66.3988 78.2115 65.9428 78.2115 65.3728C78.2115 64.9295 78.0848 64.5685 77.8315 64.2898C77.5782 64.0111 77.1032 63.8085 76.4065 63.6818L75.1525 63.4918C72.5052 63.0738 71.1815 61.7881 71.1815 59.6348C71.1815 59.0395 71.2892 58.5011 71.5045 58.0198C71.7325 57.5385 72.0555 57.1268 72.4735 56.7848C72.8915 56.4428 73.3918 56.1831 73.9745 56.0058C74.5698 55.8158 75.2412 55.7208 75.9885 55.7208C76.9892 55.7208 77.8632 55.8855 78.6105 56.2148C79.3578 56.5441 79.9975 57.0318 80.5295 57.6778L78.8195 59.2928C78.4902 58.8875 78.0912 58.5581 77.6225 58.3048C77.1538 58.0515 76.5648 57.9248 75.8555 57.9248C75.1335 57.9248 74.5888 58.0641 74.2215 58.3428C73.8668 58.6088 73.6895 58.9888 73.6895 59.4828C73.6895 59.9895 73.8352 60.3631 74.1265 60.6038C74.4178 60.8445 74.8865 61.0218 75.5325 61.1358L76.7675 61.3638C78.1102 61.6045 79.0982 62.0351 79.7315 62.6558C80.3775 63.2638 80.7005 64.1188 80.7005 65.2208C80.7005 65.8541 80.5865 66.4305 80.3585 66.9498C80.1432 67.4565 79.8202 67.8998 79.3895 68.2798C78.9715 68.6471 78.4522 68.9321 77.8315 69.1348C77.2235 69.3375 76.5205 69.4388 75.7225 69.4388ZM83.2147 69.2108V55.9488H89.1807C89.7887 55.9488 90.3334 56.0501 90.8147 56.2528C91.3087 56.4428 91.7267 56.7215 92.0687 57.0888C92.4107 57.4435 92.6704 57.8741 92.8477 58.3808C93.0251 58.8875 93.1137 59.4448 93.1137 60.0528C93.1137 60.6735 93.0251 61.2371 92.8477 61.7438C92.6704 62.2378 92.4107 62.6685 92.0687 63.0358C91.7267 63.3905 91.3087 63.6691 90.8147 63.8718C90.3334 64.0618 89.7887 64.1568 89.1807 64.1568H85.7227V69.2108H83.2147ZM85.7227 61.9908H88.9527C89.4341 61.9908 89.8141 61.8641 90.0927 61.6108C90.3714 61.3448 90.5107 60.9711 90.5107 60.4898V59.6158C90.5107 59.1345 90.3714 58.7671 90.0927 58.5138C89.8141 58.2605 89.4341 58.1338 88.9527 58.1338H85.7227V61.9908ZM95.3866 69.2108V55.9488H104.127V58.1718H97.8946V61.3828H103.405V63.6058H97.8946V66.9878H104.127V69.2108H95.3866ZM109.287 69.2108H106.779V55.9488H112.764C113.372 55.9488 113.917 56.0438 114.398 56.2338C114.88 56.4238 115.285 56.7025 115.614 57.0698C115.956 57.4245 116.216 57.8551 116.393 58.3618C116.583 58.8685 116.678 59.4321 116.678 60.0528C116.678 60.9648 116.469 61.7501 116.051 62.4088C115.646 63.0675 115.032 63.5361 114.208 63.8148L116.925 69.2108H114.132L111.662 64.0998H109.287V69.2108ZM112.517 61.9908C112.999 61.9908 113.379 61.8641 113.657 61.6108C113.936 61.3448 114.075 60.9711 114.075 60.4898V59.6158C114.075 59.1345 113.936 58.7671 113.657 58.5138C113.379 58.2605 112.999 58.1338 112.517 58.1338H109.287V61.9908H112.517ZM127.604 69.2108L126.54 65.8288H121.828L120.783 69.2108H118.237L122.683 55.9488H125.799L130.207 69.2108H127.604ZM124.222 58.2288H124.127L122.436 63.6818H125.932L124.222 58.2288Z" fill="#09473E"/>
<defs>
<linearGradient id="paint0_linear_58_3629" x1="1.76806e-06" y1="58.5044" x2="133.101" y2="-13.2676" gradientUnits="userSpaceOnUse">
<stop stop-color="#12544A" stop-opacity="0.1"/>
<stop offset="0.479167" stop-color="#12544A" stop-opacity="0.51"/>
<stop offset="1" stop-color="#12544A"/>
</linearGradient>
<linearGradient id="paint1_linear_58_3629" x1="2.31095" y1="53.5087" x2="123.63" y2="-6.68861" gradientUnits="userSpaceOnUse">
<stop stop-color="#12544A" stop-opacity="0.1"/>
<stop offset="0.510417" stop-color="#12544A" stop-opacity="0.51"/>
<stop offset="0.973958" stop-color="#12544A"/>
</linearGradient>
</defs>
</svg>
