<svg width="123" height="61" viewBox="0 0 123 61" fill="none" xmlns="http://www.w3.org/2000/svg">
<rect x="1.5" y="2.27832" width="119.191" height="46.7367" rx="18.5" fill="white" stroke="url(#paint0_linear_73_652)" stroke-width="3"/>
<path d="M44.9605 21.2535C44.9605 21.2535 55.6428 17.964 54.3309 14.2798C53.0191 10.5956 38.4011 13.929 37.6515 14.2798C37.6515 14.2798 21.1595 18.2272 24.1581 24.2798C27.1566 30.3324 46.6472 25.9903 54.3309 22.964C62.0147 19.9377 68.0119 14.4115 64.6384 10.5956C61.265 6.77982 46.085 6.69602 37.6515 8.49035C29.218 10.2847 22.8462 12.7009 18.5357 15.4641C14.2253 18.2272 11.0394 23.7535 12.9135 27.5693C14.7876 31.3851 24.1581 34.6745 37.6515 33.8851C51.1449 33.0956 72.5096 27.5693 72.5096 27.5693M73.2592 27.5693C73.2592 27.5693 95.1861 22.1746 103.432 14.6746M75.5081 23.7535H85.2534L82.0675 29.2798M80.943 19.9377L92.375 20.8588L89.189 27.7008M90.3135 16.7798L98.7469 17.7009L95.5609 24.4114M104.32 14.5478C104.681 15.7701 98.6989 22.1639 95.3735 24.432C92.0481 26.7002 87.8863 29.005 83.3797 29.3204C78.8731 29.6357 72.2285 27.6275 72.2285 27.6275C72.2285 27.6275 73.8705 24.3718 77.2639 21.9238C80.6573 19.4758 84.4791 18.0702 89.2577 17.0354C94.0363 16.0007 103.96 13.3255 104.32 14.5478Z" stroke="url(#paint1_linear_73_652)" stroke-width="3"/>
<ellipse cx="98.5594" cy="31.1217" rx="1.31187" ry="0.92105" fill="#12544A"/>
<ellipse cx="98.5594" cy="31.1217" rx="1.31187" ry="0.92105" fill="#12544A"/>
<ellipse cx="103.431" cy="23.4904" rx="1.31187" ry="0.92105" fill="#12544A"/>
<ellipse cx="103.431" cy="23.4904" rx="1.31187" ry="0.92105" fill="#12544A"/>
<ellipse cx="74.1913" cy="19.5431" rx="1.31186" ry="0.92105" fill="#12544A"/>
<ellipse cx="74.1913" cy="19.5431" rx="1.31186" ry="0.92105" fill="#12544A"/>
<ellipse cx="91.8138" cy="12.1746" rx="1.31187" ry="0.92105" fill="#12544A"/>
<ellipse cx="91.8138" cy="12.1746" rx="1.31187" ry="0.92105" fill="#12544A"/>
<ellipse cx="108.679" cy="14.8067" rx="1.31186" ry="0.92105" fill="#12544A"/>
<ellipse cx="108.679" cy="14.8067" rx="1.31186" ry="0.92105" fill="#12544A"/>
<rect x="15.7993" y="36.8315" width="91.2401" height="20.7894" fill="white"/>
<path d="M24.8114 41.0965H26.8594V45.9605H26.9234C27.0728 45.4805 27.3554 45.1019 27.7714 44.8245C28.1874 44.5365 28.6728 44.3925 29.2274 44.3925C30.2941 44.3925 31.1048 44.7712 31.6594 45.5285C32.2248 46.2752 32.5074 47.3472 32.5074 48.7445C32.5074 50.1525 32.2248 51.2352 31.6594 51.9925C31.1048 52.7499 30.2941 53.1285 29.2274 53.1285C28.6728 53.1285 28.1874 52.9845 27.7714 52.6965C27.3661 52.4085 27.0834 52.0245 26.9234 51.5445H26.8594V52.9365H24.8114V41.0965ZM28.5714 51.4325C29.1048 51.4325 29.5368 51.2565 29.8674 50.9045C30.1981 50.5525 30.3634 50.0779 30.3634 49.4805V48.0405C30.3634 47.4432 30.1981 46.9685 29.8674 46.6165C29.5368 46.2539 29.1048 46.0725 28.5714 46.0725C28.0808 46.0725 27.6701 46.1952 27.3394 46.4405C27.0194 46.6859 26.8594 47.0112 26.8594 47.4165V50.0725C26.8594 50.5099 27.0194 50.8459 27.3394 51.0805C27.6701 51.3152 28.0808 51.4325 28.5714 51.4325ZM39.3845 44.5845H41.3045L37.9445 54.4245C37.8379 54.7232 37.7152 54.9792 37.5765 55.1925C37.4485 55.4165 37.2939 55.5979 37.1125 55.7365C36.9312 55.8752 36.7125 55.9765 36.4565 56.0405C36.2005 56.1045 35.9019 56.1365 35.5605 56.1365H34.3285V54.5045H35.8325L36.2165 53.3365L33.2245 44.5845H35.2565L36.7125 49.0005L37.2565 51.1125H37.3525L37.9285 49.0005L39.3845 44.5845ZM46.5644 52.9365V41.7685H51.5884C52.1004 41.7685 52.5591 41.8539 52.9644 42.0245C53.3804 42.1845 53.7324 42.4192 54.0204 42.7285C54.3084 43.0272 54.5271 43.3899 54.6764 43.8165C54.8258 44.2432 54.9004 44.7125 54.9004 45.2245C54.9004 45.7472 54.8258 46.2219 54.6764 46.6485C54.5271 47.0645 54.3084 47.4272 54.0204 47.7365C53.7324 48.0352 53.3804 48.2699 52.9644 48.4405C52.5591 48.6005 52.1004 48.6805 51.5884 48.6805H48.6764V52.9365H46.5644ZM48.6764 46.8565H51.3964C51.8018 46.8565 52.1218 46.7499 52.3564 46.5365C52.5911 46.3125 52.7084 45.9979 52.7084 45.5925V44.8565C52.7084 44.4512 52.5911 44.1419 52.3564 43.9285C52.1218 43.7152 51.8018 43.6085 51.3964 43.6085H48.6764V46.8565ZM56.8144 52.9365V41.7685H64.1744V43.6405H58.9264V46.3445H63.5664V48.2165H58.9264V51.0645H64.1744V52.9365H56.8144ZM68.5202 52.9365H66.4082V41.7685H71.4482C71.9602 41.7685 72.4188 41.8485 72.8242 42.0085C73.2295 42.1685 73.5708 42.4032 73.8482 42.7125C74.1362 43.0112 74.3548 43.3739 74.5042 43.8005C74.6642 44.2272 74.7442 44.7019 74.7442 45.2245C74.7442 45.9925 74.5682 46.6539 74.2162 47.2085C73.8748 47.7632 73.3575 48.1579 72.6642 48.3925L74.9522 52.9365H72.6002L70.5202 48.6325H68.5202V52.9365ZM71.2402 46.8565C71.6455 46.8565 71.9655 46.7499 72.2002 46.5365C72.4348 46.3125 72.5522 45.9979 72.5522 45.5925V44.8565C72.5522 44.4512 72.4348 44.1419 72.2002 43.9285C71.9655 43.7152 71.6455 43.6085 71.2402 43.6085H68.5202V46.8565H71.2402ZM85.4652 44.9205H85.4012L84.5372 46.6965L82.2492 50.9205L79.9612 46.6965L79.0972 44.9205H79.0332V52.9365H77.0332V41.7685H79.4172L82.2812 47.2245H82.3452L85.1772 41.7685H87.4652V52.9365H85.4652V44.9205ZM97.0077 52.9365L96.1117 50.0885H92.1437L91.2637 52.9365H89.1197L92.8637 41.7685H95.4877L99.1997 52.9365H97.0077ZM94.1597 43.6885H94.0797L92.6557 48.2805H95.5997L94.1597 43.6885Z" fill="#09473E"/>
<defs>
<linearGradient id="paint0_linear_73_652" x1="1.43074e-06" y1="44.6566" x2="103.866" y2="-15.773" gradientUnits="userSpaceOnUse">
<stop stop-color="#12544A" stop-opacity="0.1"/>
<stop offset="0.479167" stop-color="#12544A" stop-opacity="0.51"/>
<stop offset="1" stop-color="#12544A"/>
</linearGradient>
<linearGradient id="paint1_linear_73_652" x1="1.86983" y1="40.9098" x2="96.9591" y2="-9.99745" gradientUnits="userSpaceOnUse">
<stop stop-color="#12544A" stop-opacity="0.1"/>
<stop offset="0.510417" stop-color="#12544A" stop-opacity="0.51"/>
<stop offset="0.973958" stop-color="#12544A"/>
</linearGradient>
</defs>
</svg>
